# xmcd
#
# Track frame offsets:
#	150
#	9698
#	21016
#	27842
#	38725
#	48783
#	59860
#	71141
#	81714
#	89387
#	98890
#	109950
#
# Disc length: 1602 seconds
#
# Revision: 0
# Processed by: cddbd v1.5.2PL0 Copyright (c) Steve Scherf et al.
# Submitted via: EasyCDDAExtractor 16.0.1.1
#
DISCID=a306400c
DTITLE=Smokey Rogers - The Complete Entertainer
DYEAR=1976
DGENRE=Country
TTITLE0=Shame On You
TTITLE1=Release Me
TTITLE2=Alabama Jubilee
TTITLE3=Blue Spanish Eyes
TTITLE4=In A Shanty In A Shanty Town
TTITLE5=Today I Started Loving You Again
TTITLE6=Sexy Senior Citizen
TTITLE7=Born To Lose
TTITLE8=Tho I Tried
TTITLE9=San Antonio Rose
TTITLE10=Tweedle O Twill
TTITLE11=Gone
EXTD=
EXTT0=
EXTT1=
EXTT2=
EXTT3=
EXTT4=
EXTT5=
EXTT6=
EXTT7=
EXTT8=
EXTT9=
EXTT10=
EXTT11=
PLAYORDER=
